<?xml version="1.0" encoding="utf-8"?>
<!-- Generator: Adobe Illustrator 16.0.3, SVG Export Plug-In . SVG Version: 6.00 Build 0)  -->
<!DOCTYPE svg PUBLIC "-//W3C//DTD SVG 1.1//EN" "http://www.w3.org/Graphics/SVG/1.1/DTD/svg11.dtd">
<svg version="1.1" id="Layer_1" xmlns="http://www.w3.org/2000/svg" xmlns:xlink="http://www.w3.org/1999/xlink" x="0px" y="0px"
	 width="1152px" height="864px" viewBox="0 0 1152 864" enable-background="new 0 0 1152 864" xml:space="preserve">
<g>
	<path fill="none" stroke="#FF0000" stroke-width="0.01" stroke-miterlimit="10" d="M885.956,233.529
		c0,4.502-4.842,8.15-10.817,8.15H32.78c-5.974,0-10.817-3.648-10.817-8.15V33.832c0-4.502,4.844-8.152,10.817-8.152h842.358
		c5.976,0,10.817,3.65,10.817,8.152V233.529z"/>
	
		<rect x="48.902" y="45.687" fill="none" stroke="#FF0000" stroke-width="0.01" stroke-miterlimit="10" width="12.96" height="57.6"/>
	
		<rect x="48.902" y="160.888" fill="none" stroke="#FF0000" stroke-width="0.01" stroke-miterlimit="10" width="12.96" height="57.6"/>
	
		<rect x="840.949" y="45.687" fill="none" stroke="#FF0000" stroke-width="0.01" stroke-miterlimit="10" width="12.96" height="57.6"/>
	
		<rect x="840.949" y="160.888" fill="none" stroke="#FF0000" stroke-width="0.01" stroke-miterlimit="10" width="12.96" height="57.6"/>
	<circle fill="none" stroke="#FF0000" stroke-width="0.01" stroke-miterlimit="10" cx="183.958" cy="133.68" r="3.6"/>
	<circle fill="none" stroke="#FF0000" stroke-width="0.01" stroke-miterlimit="10" cx="362.759" cy="133.68" r="3.6"/>
	<circle fill="none" stroke="#FF0000" stroke-width="0.01" stroke-miterlimit="10" cx="548.759" cy="130.079" r="3.6"/>
	<circle fill="none" stroke="#FF0000" stroke-width="0.01" stroke-miterlimit="10" cx="727.56" cy="130.079" r="3.6"/>
</g>
<g>
	<path fill="none" stroke="#FF0000" stroke-width="0.01" stroke-miterlimit="10" d="M957.963,465.171
		c0,6.55-7.369,11.859-16.458,11.859H38.421c-9.089,0-16.458-5.31-16.458-11.859V272.89c0-6.55,7.369-11.859,16.458-11.859h903.084
		c9.089,0,16.458,5.31,16.458,11.859V465.171z"/>
	<g>
		
			<rect x="93.963" y="362.303" fill="none" stroke="#FF0000" stroke-width="0.01" stroke-miterlimit="10" width="57.6" height="12.961"/>
		
			<rect x="209.164" y="362.303" fill="none" stroke="#FF0000" stroke-width="0.01" stroke-miterlimit="10" width="57.6" height="12.961"/>
		
			<rect x="324.365" y="362.303" fill="none" stroke="#FF0000" stroke-width="0.01" stroke-miterlimit="10" width="57.6" height="12.961"/>
		
			<rect x="324.365" y="362.303" fill="none" stroke="#FF0000" stroke-width="0.01" stroke-miterlimit="10" width="57.6" height="12.961"/>
		
			<rect x="439.566" y="362.303" fill="none" stroke="#FF0000" stroke-width="0.01" stroke-miterlimit="10" width="57.6" height="12.961"/>
		
			<rect x="554.768" y="362.303" fill="none" stroke="#FF0000" stroke-width="0.01" stroke-miterlimit="10" width="57.6" height="12.961"/>
		
			<rect x="669.969" y="362.303" fill="none" stroke="#FF0000" stroke-width="0.01" stroke-miterlimit="10" width="57.6" height="12.961"/>
		
			<rect x="785.17" y="362.303" fill="none" stroke="#FF0000" stroke-width="0.01" stroke-miterlimit="10" width="57.6" height="12.961"/>
	</g>
</g>
<polygon fill="none" stroke="#FF0000" stroke-width="0.01" stroke-miterlimit="10" points="39.244,510.023 39.244,533.215 
	26.283,533.215 26.283,590.814 39.244,590.814 39.244,648.416 26.283,648.416 26.283,706.016 39.244,706.016 39.244,726.023 
	507.244,726.023 507.244,510.023 "/>
<polygon fill="none" stroke="#FF0000" stroke-width="0.01" stroke-miterlimit="10" points="542.909,510.023 542.909,533.215 
	529.948,533.215 529.948,590.814 542.909,590.814 542.909,648.416 529.948,648.416 529.948,706.016 542.909,706.016 
	542.909,726.023 1010.909,726.023 1010.909,510.023 "/>
</svg>
