<?xml version="1.0" encoding="utf-8"?>
<!-- Generator: Adobe Illustrator 16.0.3, SVG Export Plug-In . SVG Version: 6.00 Build 0)  -->
<!DOCTYPE svg PUBLIC "-//W3C//DTD SVG 1.1//EN" "http://www.w3.org/Graphics/SVG/1.1/DTD/svg11.dtd">
<svg version="1.1" id="Layer_1" xmlns="http://www.w3.org/2000/svg" xmlns:xlink="http://www.w3.org/1999/xlink" x="0px" y="0px"
	 width="1152px" height="864px" viewBox="0 0 1152 864" enable-background="new 0 0 1152 864" xml:space="preserve">
<g>
	<polygon fill="none" stroke="#FF0000" stroke-width="0.01" stroke-miterlimit="10" points="46.503,52.047 46.503,772.047 
		46.503,785.008 104.103,785.008 104.103,772.047 161.704,772.047 161.704,785.008 219.304,785.008 219.304,772.047 
		276.905,772.047 276.905,785.008 334.505,785.008 334.505,772.047 392.106,772.047 392.106,785.008 449.706,785.008 
		449.706,772.047 507.308,772.047 507.308,785.008 564.907,785.008 564.907,772.047 622.509,772.047 622.509,785.008 
		680.108,785.008 680.108,772.047 737.71,772.047 737.71,785.008 795.31,785.008 795.31,772.047 838.503,772.047 838.503,52.047 	
		"/>
	<path fill="none" stroke="#FF0000" stroke-width="0.01" stroke-miterlimit="10" d="M809.706,81.557c0,1.491-5.547,2.7-12.389,2.7
		H102.095c-6.842,0-12.389-1.209-12.389-2.7v-1.8c0-1.491,5.547-2.7,12.389-2.7h695.223c6.842,0,12.389,1.209,12.389,2.7V81.557z"/>
	<path fill="none" stroke="#FF0000" stroke-width="0.01" stroke-miterlimit="10" d="M809.706,103.69c0,1.491-5.547,2.7-12.389,2.7
		H102.095c-6.842,0-12.389-1.209-12.389-2.7v-1.8c0-1.491,5.547-2.7,12.389-2.7h695.223c6.842,0,12.389,1.209,12.389,2.7V103.69z"/>
	<path fill="none" stroke="#FF0000" stroke-width="0.01" stroke-miterlimit="10" d="M809.706,125.823c0,1.491-5.547,2.7-12.389,2.7
		H102.095c-6.842,0-12.389-1.209-12.389-2.7v-1.8c0-1.491,5.547-2.7,12.389-2.7h695.223c6.842,0,12.389,1.209,12.389,2.7V125.823z"
		/>
	<path fill="none" stroke="#FF0000" stroke-width="0.01" stroke-miterlimit="10" d="M809.706,147.957c0,1.491-5.547,2.7-12.389,2.7
		H102.095c-6.842,0-12.389-1.209-12.389-2.7v-1.8c0-1.491,5.547-2.7,12.389-2.7h695.223c6.842,0,12.389,1.209,12.389,2.7V147.957z"
		/>
	<path fill="none" stroke="#FF0000" stroke-width="0.01" stroke-miterlimit="10" d="M809.706,170.09c0,1.491-5.547,2.7-12.389,2.7
		H102.095c-6.842,0-12.389-1.209-12.389-2.7v-1.8c0-1.491,5.547-2.7,12.389-2.7h695.223c6.842,0,12.389,1.209,12.389,2.7V170.09z"/>
	<path fill="none" stroke="#FF0000" stroke-width="0.01" stroke-miterlimit="10" d="M809.706,214.357c0,1.491-5.547,2.7-12.389,2.7
		H102.095c-6.842,0-12.389-1.209-12.389-2.7v-1.8c0-1.491,5.547-2.7,12.389-2.7h695.223c6.842,0,12.389,1.209,12.389,2.7V214.357z"
		/>
	<path fill="none" stroke="#FF0000" stroke-width="0.01" stroke-miterlimit="10" d="M809.706,258.624c0,1.491-5.547,2.7-12.389,2.7
		H102.095c-6.842,0-12.389-1.209-12.389-2.7v-1.8c0-1.491,5.547-2.7,12.389-2.7h695.223c6.842,0,12.389,1.209,12.389,2.7V258.624z"
		/>
	<path fill="none" stroke="#FF0000" stroke-width="0.01" stroke-miterlimit="10" d="M809.706,302.891c0,1.491-5.547,2.7-12.389,2.7
		H102.095c-6.842,0-12.389-1.209-12.389-2.7v-1.8c0-1.491,5.547-2.7,12.389-2.7h695.223c6.842,0,12.389,1.209,12.389,2.7V302.891z"
		/>
	<path fill="none" stroke="#FF0000" stroke-width="0.01" stroke-miterlimit="10" d="M809.706,347.157c0,1.491-5.547,2.7-12.389,2.7
		H102.095c-6.842,0-12.389-1.209-12.389-2.7v-1.8c0-1.491,5.547-2.7,12.389-2.7h695.223c6.842,0,12.389,1.209,12.389,2.7V347.157z"
		/>
	<path fill="none" stroke="#FF0000" stroke-width="0.01" stroke-miterlimit="10" d="M809.706,391.424c0,1.491-5.547,2.7-12.389,2.7
		H102.095c-6.842,0-12.389-1.209-12.389-2.7v-1.8c0-1.491,5.547-2.7,12.389-2.7h695.223c6.842,0,12.389,1.209,12.389,2.7V391.424z"
		/>
	<path fill="none" stroke="#FF0000" stroke-width="0.01" stroke-miterlimit="10" d="M809.706,192.224c0,1.491-5.547,2.7-12.389,2.7
		H102.095c-6.842,0-12.389-1.209-12.389-2.7v-1.8c0-1.491,5.547-2.7,12.389-2.7h695.223c6.842,0,12.389,1.209,12.389,2.7V192.224z"
		/>
	<path fill="none" stroke="#FF0000" stroke-width="0.01" stroke-miterlimit="10" d="M809.706,236.49c0,1.491-5.547,2.7-12.389,2.7
		H102.095c-6.842,0-12.389-1.209-12.389-2.7v-1.8c0-1.491,5.547-2.7,12.389-2.7h695.223c6.842,0,12.389,1.209,12.389,2.7V236.49z"/>
	<path fill="none" stroke="#FF0000" stroke-width="0.01" stroke-miterlimit="10" d="M809.706,280.757c0,1.491-5.547,2.7-12.389,2.7
		H102.095c-6.842,0-12.389-1.209-12.389-2.7v-1.8c0-1.491,5.547-2.7,12.389-2.7h695.223c6.842,0,12.389,1.209,12.389,2.7V280.757z"
		/>
	<path fill="none" stroke="#FF0000" stroke-width="0.01" stroke-miterlimit="10" d="M809.706,325.024c0,1.491-5.547,2.7-12.389,2.7
		H102.095c-6.842,0-12.389-1.209-12.389-2.7v-1.8c0-1.491,5.547-2.7,12.389-2.7h695.223c6.842,0,12.389,1.209,12.389,2.7V325.024z"
		/>
	<path fill="none" stroke="#FF0000" stroke-width="0.01" stroke-miterlimit="10" d="M809.706,369.291c0,1.491-5.547,2.7-12.389,2.7
		H102.095c-6.842,0-12.389-1.209-12.389-2.7v-1.8c0-1.491,5.547-2.7,12.389-2.7h695.223c6.842,0,12.389,1.209,12.389,2.7V369.291z"
		/>
	<path fill="none" stroke="#FF0000" stroke-width="0.01" stroke-miterlimit="10" d="M809.706,413.558c0,1.491-5.547,2.7-12.389,2.7
		H102.095c-6.842,0-12.389-1.209-12.389-2.7v-1.8c0-1.491,5.547-2.7,12.389-2.7h695.223c6.842,0,12.389,1.209,12.389,2.7V413.558z"
		/>
	<path fill="none" stroke="#FF0000" stroke-width="0.01" stroke-miterlimit="10" d="M809.706,433.457c0,1.491-5.547,2.7-12.389,2.7
		H102.095c-6.842,0-12.389-1.209-12.389-2.7v-1.8c0-1.491,5.547-2.7,12.389-2.7h695.223c6.842,0,12.389,1.209,12.389,2.7V433.457z"
		/>
	<path fill="none" stroke="#FF0000" stroke-width="0.01" stroke-miterlimit="10" d="M809.706,455.591c0,1.491-5.547,2.7-12.389,2.7
		H102.095c-6.842,0-12.389-1.209-12.389-2.7v-1.8c0-1.491,5.547-2.7,12.389-2.7h695.223c6.842,0,12.389,1.209,12.389,2.7V455.591z"
		/>
	<path fill="none" stroke="#FF0000" stroke-width="0.01" stroke-miterlimit="10" d="M809.706,477.724c0,1.491-5.547,2.7-12.389,2.7
		H102.095c-6.842,0-12.389-1.209-12.389-2.7v-1.8c0-1.491,5.547-2.7,12.389-2.7h695.223c6.842,0,12.389,1.209,12.389,2.7V477.724z"
		/>
	<path fill="none" stroke="#FF0000" stroke-width="0.01" stroke-miterlimit="10" d="M809.706,499.857c0,1.491-5.547,2.7-12.389,2.7
		H102.095c-6.842,0-12.389-1.209-12.389-2.7v-1.8c0-1.491,5.547-2.7,12.389-2.7h695.223c6.842,0,12.389,1.209,12.389,2.7V499.857z"
		/>
	<path fill="none" stroke="#FF0000" stroke-width="0.01" stroke-miterlimit="10" d="M809.706,521.99c0,1.491-5.547,2.7-12.389,2.7
		H102.095c-6.842,0-12.389-1.209-12.389-2.7v-1.8c0-1.491,5.547-2.7,12.389-2.7h695.223c6.842,0,12.389,1.209,12.389,2.7V521.99z"/>
</g>
</svg>
